<?xml version="1.0" encoding="UTF-8" standalone="no"?>
<!-- Created with Inkscape (http://www.inkscape.org/) -->

<svg
   xmlns:dc="http://purl.org/dc/elements/1.1/"
   xmlns:cc="http://creativecommons.org/ns#"
   xmlns:rdf="http://www.w3.org/1999/02/22-rdf-syntax-ns#"
   xmlns:svg="http://www.w3.org/2000/svg"
   xmlns="http://www.w3.org/2000/svg"
   xmlns:xlink="http://www.w3.org/1999/xlink"
   xmlns:sodipodi="http://sodipodi.sourceforge.net/DTD/sodipodi-0.dtd"
   xmlns:inkscape="http://www.inkscape.org/namespaces/inkscape"
   width="500"
   height="500"
   viewBox="0 0 499.99997 500.00001"
   id="svg5282"
   version="1.1"
   inkscape:version="0.91 r13725"
   sodipodi:docname="drawing3.svg"
   inkscape:export-filename="/home/mark/repos/lrwebsite/roomImage.png"
   inkscape:export-xdpi="90"
   inkscape:export-ydpi="90">
  <defs
     id="defs5284">
    <linearGradient
       id="linearGradient6011">
      <stop
         id="stop6013"
         offset="0"
         style="stop-color:#d7d7d7;stop-opacity:1" />
      <stop
         id="stop6015"
         offset="1"
         style="stop-color:#d7d7d7;stop-opacity:0;" />
    </linearGradient>
    <linearGradient
       inkscape:collect="always"
       xlink:href="#linearGradient6011"
       id="linearGradient5393"
       x1="1333.2068"
       y1="528.2959"
       x2="1094.3383"
       y2="528.2959"
       gradientUnits="userSpaceOnUse"
       gradientTransform="matrix(1.2154566,0,0,1.2154566,-1297.8226,205.0027)" />
    <linearGradient
       id="linearGradient5387">
      <stop
         style="stop-color:#d7d7d7;stop-opacity:1;"
         offset="0"
         id="stop5389" />
      <stop
         style="stop-color:#d7d7d7;stop-opacity:0;"
         offset="1"
         id="stop5391" />
    </linearGradient>
    <linearGradient
       inkscape:collect="always"
       xlink:href="#linearGradient5387"
       id="linearGradient5079"
       x1="1333.2068"
       y1="528.2959"
       x2="1094.3383"
       y2="528.2959"
       gradientUnits="userSpaceOnUse"
       gradientTransform="translate(-392.32294,-269)" />
  </defs>
  <sodipodi:namedview
     id="base"
     pagecolor="#ffffff"
     bordercolor="#666666"
     borderopacity="1.0"
     inkscape:pageopacity="0.0"
     inkscape:pageshadow="2"
     inkscape:zoom="1.15"
     inkscape:cx="443.58273"
     inkscape:cy="230.28739"
     inkscape:document-units="px"
     inkscape:current-layer="layer1"
     showgrid="false"
     units="px"
     inkscape:snap-page="true"
     inkscape:snap-bbox="true"
     inkscape:snap-intersection-paths="true"
     inkscape:object-paths="true"
     inkscape:object-nodes="true"
     inkscape:snap-smooth-nodes="true"
     inkscape:bbox-paths="true"
     inkscape:snap-global="true"
     inkscape:window-width="1220"
     inkscape:window-height="1341"
     inkscape:window-x="2140"
     inkscape:window-y="280"
     inkscape:window-maximized="0" />
  <metadata
     id="metadata5287">
    <rdf:RDF>
      <cc:Work
         rdf:about="">
        <dc:format>image/svg+xml</dc:format>
        <dc:type
           rdf:resource="http://purl.org/dc/dcmitype/StillImage" />
        <dc:title></dc:title>
      </cc:Work>
    </rdf:RDF>
  </metadata>
  <g
     inkscape:label="Layer 1"
     inkscape:groupmode="layer"
     id="layer1"
     transform="translate(0,-552.36216)">
    <rect
       style="opacity:1;fill:#eeeeee;fill-opacity:1;stroke:none;stroke-width:2.79999995;stroke-linecap:butt;stroke-linejoin:miter;stroke-miterlimit:4;stroke-dasharray:none;stroke-dashoffset:0;stroke-opacity:1"
       id="rect6475"
       width="500"
       height="500.00003"
       x="-1.5258789e-05"
       y="552.36218" />
    <text
       xml:space="preserve"
       style="font-style:normal;font-variant:normal;font-weight:bold;font-stretch:normal;font-size:17.18312263px;font-family:'Nimbus Mono';-inkscape-font-specification:'Nimbus Mono Bold';text-align:start;writing-mode:lr-tb;text-anchor:start;fill:#dfdfdf;fill-opacity:1;stroke:none"
       x="-70.00386"
       y="640.0827"
       id="text5349"
       inkscape:export-filename="/home/mark/repos/website-lockedRoom/public_html/static/theme.png"
       inkscape:export-xdpi="90"
       inkscape:export-ydpi="90"
       transform="matrix(0.97096739,-0.23921187,0.23921187,0.97096739,0,0)"><tspan
         sodipodi:role="line"
         id="tspan5351"
         x="-70.00386"
         y="640.0827"
         style="font-size:17.18312263px;fill:#dfdfdf;fill-opacity:1">BEGIN MESSAGE:</tspan><tspan
         sodipodi:role="line"
         x="-70.00386"
         y="661.56158"
         style="font-size:17.18312263px;fill:#dfdfdf;fill-opacity:1"
         id="tspan5395">AhMzMhrECFkHAQrVJd7M4jRvx</tspan><tspan
         sodipodi:role="line"
         x="-70.00386"
         y="683.04053"
         id="tspan5353"
         style="font-size:17.18312263px;fill:#dfdfdf;fill-opacity:1">MQb41ITMzIdQ6RyExMiGrn4UY</tspan><tspan
         sodipodi:role="line"
         x="-70.00386"
         y="704.51941"
         id="tspan5355"
         style="font-size:17.18312263px;fill:#dfdfdf;fill-opacity:1">c9GwwOzZUoyTHKrGWFtU4CExM</tspan><tspan
         sodipodi:role="line"
         x="-70.00386"
         y="725.99829"
         id="tspan5357"
         style="font-size:17.18312263px;fill:#dfdfdf;fill-opacity:1">SHOI1jx2XF4EnEDRmvILkTUji</tspan><tspan
         sodipodi:role="line"
         x="-70.00386"
         y="747.47723"
         id="tspan5359"
         style="font-size:17.18312263px;fill:#dfdfdf;fill-opacity:1">wSms0hMTAhlorSEpuNueEb5CE</tspan><tspan
         sodipodi:role="line"
         x="-70.00386"
         y="768.95612"
         id="tspan5361"
         style="font-size:17.18312263px;fill:#dfdfdf;fill-opacity:1">zOSGaG1TuYynbw9B0HeRElLdT</tspan><tspan
         sodipodi:role="line"
         x="-70.00386"
         y="790.435"
         id="tspan5363"
         style="font-size:17.18312263px;fill:#dfdfdf;fill-opacity:1">AhMzMhrECFkHAQrVJd7M4jRvx</tspan><tspan
         sodipodi:role="line"
         x="-70.00386"
         y="811.91394"
         id="tspan5365"
         style="font-size:17.18312263px;fill:#dfdfdf;fill-opacity:1">MQb41ITMzIdQ6RyExMiGrn4UY</tspan><tspan
         sodipodi:role="line"
         x="-70.00386"
         y="833.39282"
         id="tspan5367"
         style="font-size:17.18312263px;fill:#dfdfdf;fill-opacity:1">c9GwwOzZUoyTHKrGWFtU4CExM</tspan><tspan
         sodipodi:role="line"
         x="-70.00386"
         y="854.87177"
         id="tspan5369"
         style="font-size:17.18312263px;fill:#dfdfdf;fill-opacity:1">SHOI1jx2XF4EnEDRmvILkTUji</tspan><tspan
         sodipodi:role="line"
         x="-70.00386"
         y="876.35065"
         id="tspan5371"
         style="font-size:17.18312263px;fill:#dfdfdf;fill-opacity:1">wSms0hMTAhlorSEpuNueEb5CE</tspan><tspan
         sodipodi:role="line"
         x="-70.00386"
         y="897.82953"
         id="tspan5373"
         style="font-size:17.18312263px;fill:#dfdfdf;fill-opacity:1">zOSGaG1TuYynbw9B0HeRElLdT</tspan><tspan
         sodipodi:role="line"
         x="-70.00386"
         y="919.30847"
         id="tspan5375"
         style="font-size:17.18312263px;fill:#dfdfdf;fill-opacity:1">AhMzMhrECFkHAQrVJd7M4jRvx</tspan><tspan
         sodipodi:role="line"
         x="-70.00386"
         y="940.78735"
         id="tspan5377"
         style="font-size:17.18312263px;fill:#dfdfdf;fill-opacity:1">MQb41ITMzIdQ6RyExMiGrn4UY</tspan><tspan
         sodipodi:role="line"
         x="-70.00386"
         y="962.26624"
         id="tspan5379"
         style="font-size:17.18312263px;fill:#dfdfdf;fill-opacity:1">c9GwwOzZUoyTHKrGWFtU4CExM</tspan><tspan
         sodipodi:role="line"
         x="-70.00386"
         y="983.74518"
         id="tspan5381"
         style="font-size:17.18312263px;fill:#dfdfdf;fill-opacity:1">SHOI1jx2XF4EnEDRmvILkTUji</tspan><tspan
         sodipodi:role="line"
         x="-70.00386"
         y="1005.2241"
         id="tspan5383"
         style="font-size:17.18312263px;fill:#dfdfdf;fill-opacity:1">wSms0hMTAhlorSEpuNueEb5CE</tspan><tspan
         sodipodi:role="line"
         x="-70.00386"
         y="1026.7029"
         id="tspan5385"
         style="font-size:17.18312263px;fill:#dfdfdf;fill-opacity:1">zOSGaG1TuYynbw9B0HeRElLdT</tspan><tspan
         sodipodi:role="line"
         x="-70.00386"
         y="1048.1818"
         style="font-size:17.18312263px;fill:#dfdfdf;fill-opacity:1"
         id="tspan5397">END MESSAGE:</tspan></text>
    <path
       style="font-style:normal;font-variant:normal;font-weight:500;font-stretch:normal;font-size:160.91099548px;line-height:125%;font-family:'Palladio URW';-inkscape-font-specification:'Palladio URW Medium';letter-spacing:0px;word-spacing:0px;fill:#333333;fill-opacity:1;stroke:none"
       d="m 243.36491,888.15956 -7.62727,-11.2337 -7.63029,7.59495 c -4.19665,4.17724 -7.63028,8.08652 -7.63028,8.68735 0,0.60081 -0.77363,1.09239 -1.71916,1.09239 -0.94553,0 -1.70469,-0.4835 -1.68702,-1.07446 0.0177,-0.59098 6.92203,-34.92048 15.34298,-76.28778 12.21591,-60.00957 15.10281,-75.47395 14.2816,-76.50267 -1.78581,-2.23714 -2.17671,-4.36029 -1.15881,-6.29423 1.336,-2.53831 2.39716,-3.13253 5.62168,-3.148 4.62151,-0.0222 7.06295,5.34369 3.98089,8.74933 -1.35589,1.49823 -0.59187,5.98281 13.04479,76.57038 7.96675,41.23839 14.65554,75.84924 14.86394,76.91297 0.29699,1.51585 -0.0146,1.93405 -1.44046,1.93405 -1.00065,0 -1.81937,-0.30126 -1.81937,-0.66948 0,-0.77834 -12.66848,-15.9855 -13.58812,-16.31104 -0.33976,-0.12023 -3.50757,4.61815 -7.03955,10.52985 -1.79436,3.00334 -4.4912,7.11779 -4.4912,7.11779 -2.09962,-0.87082 -3.64198,-0.37598 -5.74137,0.21492 0,0 -3.34426,-4.61481 -5.56298,-7.88262 z m 7.19747,-9.47248 0,-15.61348 -6.23196,5.94319 c -3.42757,3.26876 -6.35291,6.20937 -6.50076,6.53472 -0.24261,0.53385 11.88351,18.74904 12.4815,18.74904 0.13818,0 0.25122,-7.02608 0.25122,-15.61347 z m 9.35878,5.09649 c 2.94602,-4.92179 4.25507,-7.91864 3.79975,-8.69914 -1.39692,-2.39462 -10.17186,-12.48845 -10.89943,-12.53765 -0.41747,-0.0283 -0.52187,6.32744 -0.23565,14.34726 0.28259,7.91891 0.52315,15.16098 0.53454,16.09352 0.0207,1.68764 0.026,1.68764 1.16361,0 0.62855,-0.93254 3.16529,-5.07433 5.63718,-9.20399 z m 16.65607,-6.94463 c -1.27503,-6.47025 -2.52474,-11.75613 -2.7771,-11.74632 -0.25238,0.009 -1.86199,2.41256 -3.57691,5.33946 l -3.11806,5.32167 5.66034,6.6595 c 3.11317,3.66271 5.76599,6.5538 5.89514,6.42466 0.12916,-0.12915 -0.80837,-5.52868 -2.08341,-11.99897 z m -43.7837,-3.98962 c -2.88277,-4.49382 -5.88357,-8.59796 -6.2994,-8.61556 -0.23639,-0.0105 -1.3594,4.72019 -2.49553,10.51152 -1.13617,5.79132 -2.25346,11.10989 -2.48283,11.81905 -0.22939,0.70915 2.52996,-1.59449 6.13189,-5.11922 6.52009,-6.38033 6.54278,-6.4182 5.14587,-8.59579 z m 37.8037,-6.91377 2.41342,-4.29905 -6.71132,-0.0717 c -3.69124,-0.0393 -7.58168,-0.16816 -8.6454,-0.28614 -1.06373,-0.11795 -1.93405,0.0236 -1.93405,0.31453 0,0.29097 2.19118,3.16892 4.86932,6.39541 5.53694,6.67068 5.05512,6.76953 10.00803,-2.05311 z m -28.86869,1.52794 c 2.96754,-2.94114 5.39553,-5.64882 5.39553,-6.01705 0,-0.36824 -4.44833,-0.66953 -9.88519,-0.66953 -5.43684,0 -9.88518,0.17488 -9.88518,0.38861 0,0.75595 7.8774,11.64552 8.42425,11.64552 0.30531,0 2.98307,-2.40639 5.95059,-5.34755 z m 29.43642,-8.33411 c -0.0151,-0.27578 -1.92467,-2.62888 -4.24361,-5.22912 l -4.21623,-4.72768 -4.81765,4.72768 -4.81764,4.7277 7.98678,0.42979 c 4.39271,0.23639 8.47028,0.46203 9.06124,0.50143 0.59095,0.0393 1.06217,-0.15402 1.04711,-0.4298 z m -21.49567,-0.71632 c -0.0183,-0.35457 -2.04919,-2.88291 -4.51279,-5.61853 l -4.47928,-4.97382 -5.56244,5.61852 -5.56245,5.61852 10.07522,0 c 5.54139,0 10.06017,-0.2901 10.04174,-0.64469 z m -11.18596,-10.90551 c 0.87693,-1.05666 0.42623,-2.03206 -2.59394,-5.61379 -2.0104,-2.38424 -3.83268,-4.15758 -4.0495,-3.94075 -0.2168,0.21682 -1.12905,3.99035 -2.02717,8.38563 -0.89815,4.39527 -1.87155,8.75227 -2.16312,9.6822 -0.35281,1.12523 1.19288,0.19809 4.6211,-2.77181 2.8332,-2.45444 5.62888,-5.03809 6.21263,-5.74148 z m 32.83176,2.09481 c -0.72085,-3.78214 -1.55118,-6.87665 -1.84524,-6.87665 -0.29405,0 -1.65123,1.16549 -3.01597,2.58996 l -2.48131,2.58993 4.22226,4.28671 c 2.32221,2.35768 4.26918,4.2867 4.32656,4.2867 0.0574,0 -0.48547,-3.0945 -1.2063,-6.87665 z m -20.75271,-2.22117 0,-8.23826 -3.5169,2.78543 c -1.9343,1.53199 -3.71058,3.29018 -3.94731,3.90711 -0.35044,0.91322 6.1494,9.78396 7.16899,9.78396 0.16236,0 0.29522,-3.70722 0.29522,-8.23824 z m 6.88938,4.35717 3.80898,-3.8811 -4.4896,-4.48959 -4.4896,-4.48961 0,8.37069 c 0,4.60387 0.30629,8.37068 0.68061,8.37068 0.37435,0 2.39466,-1.74649 4.48961,-3.88107 z m 8.41323,-9.02398 c 1.82786,-2.20133 2.59309,-3.82131 2.14895,-4.54941 -0.37934,-0.62192 -3.17222,-4.68532 -6.20637,-9.02977 -4.27698,-6.12401 -5.96711,-7.899 -7.52133,-7.899 -1.93434,0 -2.0047,0.2436 -2.0047,6.93948 l 0,6.93948 4.88034,5.52445 c 2.68418,3.03843 5.10176,5.51746 5.3724,5.50892 0.2706,-0.009 1.76942,-1.55388 3.33071,-3.43415 z m -19.75002,-2.84582 4.51948,-4.57631 -0.15299,-6.59824 c -0.0842,-3.62902 -0.31784,-6.59823 -0.51932,-6.59823 -0.76132,0 -17.45094,11.6117 -17.45094,12.14137 0,0.80695 7.84237,10.20773 8.51555,10.20773 0.31281,0 2.60252,-2.05934 5.08822,-4.57632 z m 20.88885,-12.40039 -1.40693,-6.66176 -3.00446,0.29696 c -1.65243,0.16332 -3.13078,0.4186 -3.28522,0.5673 -0.28429,0.27373 8.36551,12.45925 8.84413,12.45925 0.14268,0 -0.3737,-2.9978 -1.14752,-6.66175 z m -26.45883,-5.20411 c -2.66532,-0.14384 -5.15667,0.0496 -5.53634,0.42979 -0.37967,0.38021 -0.96277,2.39661 -1.29573,4.4809 l -0.60547,3.78956 6.14178,-4.21937 6.14179,-4.21937 z m 9.27383,-3.24852 c 1.03842,-0.64175 -0.33269,-7.61289 -1.89304,-9.62487 l -1.52033,-1.96037 -4.08504,5.39867 c -2.24678,2.96929 -4.50266,5.94171 -5.01308,6.60539 -0.78684,1.02308 0.0502,1.11028 5.50177,0.57313 3.5364,-0.34845 6.69076,-0.79481 7.00972,-0.99195 z m 13.42238,-0.34634 c 2.15411,-0.0131 2.32073,-0.60199 1.08778,-3.84488 l -0.84629,-2.22591 -3.45162,2.28418 c -1.8984,1.2563 -3.45162,2.55509 -3.45162,2.88627 0,1.23323 1.29899,1.8334 2.98668,1.37991 0.95755,-0.25732 2.61133,-0.47312 3.67507,-0.47957 z m -20.26975,-16.32306 c -1.22359,-1.66607 -2.33705,-3.1904 -2.47437,-3.3874 -0.13731,-0.19699 -0.4444,-0.1634 -0.68245,0.0746 -0.51955,0.51959 -3.86511,15.93582 -3.86511,17.81036 0,0.72384 2.08048,-1.56042 4.62331,-5.07613 l 4.62334,-6.39219 -2.22472,-3.02925 z m 18.6488,8.90236 c 0.4077,-0.30882 -8.57642,-10.64219 -9.25272,-10.64232 -1.01614,-1.4e-4 0.36486,12.6581 1.53459,14.06598 1.2293,1.47955 1.26619,1.4632 7.71813,-3.42366 z m 0.72269,-8.06349 -1.06716,-4.72768 -3.63753,-0.26434 c -2.00065,-0.14537 -3.63754,-0.0229 -3.63754,0.27249 0,0.92743 9.00236,10.80984 9.211,10.11142 0.10913,-0.36531 -0.28184,-2.79166 -0.86877,-5.39189 z m -12.66628,1.93407 c -0.0224,-2.02773 -0.15125,-2.14898 -0.90609,-0.85278 -0.48399,0.83108 -0.6428,1.89482 -0.35292,2.36386 0.88875,1.43803 1.28634,0.96083 1.25901,-1.51108 z m -1.31197,-3.8445 c 1.94957,-2.78341 1.66899,-3.32985 -1.42942,-2.784 -3.51642,0.61951 -3.59688,0.72324 -2.24275,2.89157 1.42406,2.28027 2.01172,2.26305 3.67217,-0.10763 z m 1.29445,-13.77691 -0.0436,-8.81071 -4.21059,8.16602 c -2.31581,4.49132 -4.2302,8.45612 -4.25421,8.81071 -0.024,0.35457 1.89038,0.64467 4.25421,0.64467 l 4.29792,0 z m 10.34652,8.16602 c -0.0171,-0.90785 -6.82114,-13.35612 -7.86982,-14.39799 -0.58033,-0.57654 -0.72052,1.68766 -0.42583,6.87665 0.24164,4.25493 0.4691,7.83293 0.50544,7.95111 0.17095,0.55591 7.80083,0.13498 7.79021,-0.42977 z m -14.52397,-13.26132 c 3.50969,-6.98049 3.52447,-7.04998 2.1217,-9.9916 -0.77693,-1.62923 -1.63577,-2.73908 -1.90851,-2.46634 -0.27276,0.27277 -1.23077,4.09206 -2.12888,8.48733 -0.89815,4.39529 -1.84491,8.66835 -2.10391,9.49569 -1.10779,3.53847 0.73853,1.00063 4.0196,-5.52508 z m 11.92936,-4.75681 c -1.0276,-5.10046 -1.99492,-9.40775 -2.14958,-9.57176 -0.1547,-0.164 -1.09869,1.30412 -2.09779,3.2625 l -1.81654,3.56071 3.69064,6.83439 c 2.02984,3.7589 3.8146,6.46388 3.96612,6.01105 0.15153,-0.45282 -0.56526,-4.9964 -1.59285,-10.09689 z m -7.70824,-9.27356 c 0,-2.42729 -0.32946,-3.00852 -1.70527,-3.00852 -1.64906,0 -1.65798,0.099 -0.27058,3.00852 0.78907,1.6547 1.55645,3.00853 1.70525,3.00853 0.14883,0 0.2706,-1.35383 0.2706,-3.00853 z m 3.43832,-1.28936 c 0.73435,-1.37217 0.6537,-1.71916 -0.39954,-1.71916 -0.74657,0 -1.31962,0.74655 -1.31962,1.71916 0,0.94553 0.1798,1.71916 0.39953,1.71916 0.21977,0 0.81358,-0.77363 1.31963,-1.71916 z m -3.68423,-9.9537 c 0.20784,-6.72301 -0.98162,-5.34021 -1.99818,2.323 -0.47456,3.57745 -0.35757,4.34387 0.61402,4.02253 0.84803,-0.28048 1.25424,-2.14265 1.38416,-6.34553 z m 4.71975,3.86162 c -0.13963,-1.14067 -0.77377,-4.2014 -1.40923,-6.80164 l -1.15535,-4.72771 -0.0951,6.5185 c -0.0523,3.58517 0.17087,6.78441 0.4959,7.10945 1.15843,1.15844 2.4134,-0.0588 2.16373,-2.0986 z m 92.65877,59.38606 c -5.43685,-2.78779 -10.17528,-5.08867 -10.52987,-5.1131 -0.35456,-0.0244 -0.64468,0.92266 -0.64468,2.10458 0,1.18192 -0.24035,2.14894 -0.53411,2.14894 -0.29376,0 -6.09083,-3.48129 -12.88238,-7.73623 -6.79154,-4.25493 -12.74019,-7.7362 -13.21918,-7.7362 -0.47901,0 -0.87091,1.35382 -0.87091,3.00851 0,1.65469 -0.20467,3.00853 -0.45479,3.00853 -0.25016,0 -7.63143,-5.99557 -16.40282,-13.3235 -8.77141,-7.32792 -15.62604,-13.32337 -15.23255,-13.32323 0.39351,1.5e-4 4.53234,1.36459 9.19739,3.03211 l 8.48195,3.03184 -0.38195,-2.6023 c -0.21006,-1.43129 -0.23597,-2.60233 -0.0576,-2.60233 0.1784,0 5.37683,2.32086 11.55206,5.15748 6.17522,2.83663 11.56366,5.15749 11.97429,5.15749 0.41063,0 0.98932,-0.96704 1.28597,-2.14895 0.29663,-1.18192 0.8883,-2.14895 1.31479,-2.14895 0.42649,0 8.9911,7.60063 19.0325,16.89029 10.04137,9.28967 18.62449,17.2193 19.07362,17.62139 1.91799,1.71718 -1.38359,0.35162 -10.70178,-4.42637 z m -209.66604,1.39895 c 4.07424,-3.64268 43.48219,-35.19712 44.39444,-35.54717 1.04195,-0.39984 1.17251,0.0189 0.69026,2.21469 -0.3975,1.80977 -0.2676,2.7078 0.39168,2.7078 0.54252,0 6.73589,-3.0945 13.76306,-6.87665 7.02714,-3.78215 12.97226,-6.87664 13.21139,-6.87664 0.23911,0 -0.86374,2.80338 -2.4508,6.22973 -1.58705,3.42634 -2.74378,6.3715 -2.57049,6.5448 0.1733,0.1733 5.20587,-2.27248 11.18352,-5.43504 5.97765,-3.16256 10.99332,-5.62421 11.14595,-5.47033 0.24783,0.24988 -19.71683,16.5743 -30.61389,25.03185 l -4.20358,3.26257 0,-2.61787 c 0,-1.43982 -0.14782,-2.61787 -0.32848,-2.61787 -0.18065,0 -7.33667,3.83268 -15.90224,8.51707 -8.56556,4.68438 -15.57378,8.25983 -15.57378,7.94545 0,-0.31442 0.38019,-1.8973 0.84488,-3.51757 0.46469,-1.62025 0.70645,-3.08436 0.53725,-3.25355 -0.1692,-0.16921 -5.58987,2.02935 -12.04594,4.88564 -10.56512,4.67427 -13.55915,5.84398 -12.47323,4.87309 z m 64.82671,-73.6619 c -12.29201,-4.22764 -22.92933,-7.90607 -23.63847,-8.17428 -1.00389,-0.37968 -0.83909,-0.73029 0.74439,-1.58359 1.93627,-1.04339 1.3696,-1.47794 -11.81923,-9.06392 -7.61915,-4.38238 -13.85299,-8.10512 -13.85299,-8.27271 0,-0.1676 1.25318,-0.62947 2.78486,-1.02638 l 2.78487,-0.72162 -9.62859,-7.21535 c -5.29575,-3.96844 -9.53953,-7.30445 -9.43064,-7.41331 0.16717,-0.16718 52.02045,13.53452 55.01934,14.53827 0.56068,0.18765 -1.01437,1.01733 -3.50007,1.84373 -2.48569,0.82638 -4.33011,1.80892 -4.09864,2.18342 0.23146,0.3745 5.07345,3.27421 10.76,6.44379 5.68654,3.16956 10.13288,6.09663 9.88076,6.50455 -0.2521,0.40794 -2.20678,1.0039 -4.3437,1.32433 -2.13691,0.32046 -3.77062,0.92677 -3.63041,1.34736 0.14018,0.42058 6.23372,4.43565 13.54119,8.9224 7.30745,4.48676 12.72157,8.13346 12.03134,8.10382 -0.6902,-0.0297 -11.312,-3.51288 -23.60401,-7.74051 z m 80.29631,0.81011 c 4.80781,-3.84138 8.55167,-7.17412 8.31969,-7.40609 -0.23196,-0.23198 -1.69852,-0.68594 -3.259,-1.00884 l -2.83727,-0.58708 9.28321,-6.23782 c 8.17252,-5.49148 9.21129,-6.46349 8.68189,-8.12398 -0.33072,-1.03739 -0.64006,-2.39404 -0.68741,-3.01481 -0.0654,-0.85682 38.84434,-18.16842 53.32412,-23.72483 2.31501,-0.88836 0.46074,0.87749 -10.82875,10.31231 -6.1637,5.15113 -11.20675,9.65986 -11.20675,10.01938 0,0.35952 0.96702,0.65368 2.14895,0.65368 1.18192,0 2.13441,0.29011 2.11663,0.64468 -0.0177,0.35458 -5.24291,3.90426 -11.61141,7.88819 l -11.57907,7.24353 1.87288,1.99358 c 1.03006,1.09647 1.71018,2.13607 1.51133,2.3102 -0.64618,0.56588 -42.26177,16.02221 -43.13921,16.02221 -0.46823,0 3.08234,-3.14294 7.89017,-6.98431 z"
       id="path3270-5"
       inkscape:connector-curvature="0"
       sodipodi:nodetypes="scssscscscssssscsccsscscsssccsccsscscscsscscssccccssccsssssssscccscscscccscsscscssssscsssscssssscccsssscssscscssccssssscscssssccccscscscscsscsscscccsscccccscsccssscscccssccccscsccccsccsscscsscscsssssssscssscsscscscccccccssssssscsccssscsssccsccsssscscscssssscssscsssscsccssscscscsscscsccsssscscscss" />
    <rect
       style="opacity:1;fill:none;fill-opacity:1;stroke:#b3b3b3;stroke-width:10;stroke-linecap:butt;stroke-linejoin:miter;stroke-miterlimit:4;stroke-dasharray:none;stroke-dashoffset:0;stroke-opacity:1"
       id="rect6485"
       width="500"
       height="499.99997"
       x="-1.5258789e-05"
       y="552.36218" />
    <path
       style="fill:#333333;fill-opacity:1"
       d="m 440.49117,693.33106 c -1.3947,-0.46171 -3.55828,-4.82711 -4.80795,-9.70087 -2.06997,-8.07299 -1.82998,-9.14426 2.69746,-12.04027 3.10682,-1.98731 4.64474,-4.54386 4.10293,-6.82049 -0.74677,-3.13778 -2.32346,-3.29491 -11.39614,-1.1357 l -10.52947,2.50592 -5.66272,-23.79388 c -4.57908,-19.24061 -5.21685,-24.51823 -3.33277,-27.57918 1.47938,-2.40347 1.51146,-4.86384 0.0879,-6.73977 -3.23073,-4.2573 -3.54389,-4.94404 -5.53622,-12.14041 -2.3225,-8.38898 -7.89995,-11.80631 -15.16025,-9.28876 -8.2707,2.86791 -10.81591,10.80915 -7.93412,24.75492 2.90965,14.08059 2.67847,15.14348 -2.96971,13.6545 -4.04491,-1.06628 -4.68291,-2.50394 -6.9262,-15.60736 -2.00004,-11.68257 -1.8326,-15.5463 0.87878,-20.27584 6.26432,-10.92706 22.5357,-15.29263 32.99902,-8.85354 4.09577,2.52052 5.77291,5.88787 9.49254,19.05893 l 4.51784,15.99753 20.5153,-4.31035 20.51532,-4.31038 5.46744,22.97339 5.46745,22.9734 -9.91315,2.97067 -9.91314,2.97068 3.62115,15.21554 c 2.57448,10.81756 2.93959,15.42277 1.26317,15.93244 -11.78529,3.58292 -15.356,4.31335 -17.54441,3.58888 z m 9.1911,-6.81379 c -0.37969,-1.59537 -2.38516,-2.46667 -4.51233,-1.96043 -2.12716,0.50624 -3.52516,2.18755 -3.14547,3.78292 0.37968,1.59536 2.38517,2.46667 4.51233,1.96043 2.12717,-0.50624 3.52515,-2.18755 3.14547,-3.78292 z"
       id="path6552"
       inkscape:connector-curvature="0"
       sodipodi:nodetypes="ssssscssssssssssscccccccssssssss" />
    <path
       style="fill:#333333;fill-opacity:1"
       d="m 72.614661,1032.8027 c -0.203613,-1.0181 -0.370205,-2.465 -0.370205,-3.2155 0,-1.8656 -1.513519,-3.2261 -3.588849,-3.2261 -1.352961,0 -2.032291,0.4832 -3.134941,2.23 -3.467942,5.4935 -6.144196,4.5408 -5.064304,-1.8028 0.327949,-1.9265 0.174246,-2.4011 -1.103259,-3.4059 -2.120626,-1.6681 -3.040968,-1.4736 -5.788704,1.2231 -2.480489,2.4344 -3.946905,2.6602 -4.690544,0.7223 -0.597518,-1.5571 0.589633,-2.1342 2.208432,-1.0735 1.441621,0.9446 1.499077,0.9209 2.70064,-1.1156 l 1.227684,-2.0808 -1.288297,-0.9024 c -1.815713,-1.2718 -2.775925,-1.0886 -1.197973,0.2285 1.499255,1.2515 1.154875,2.0808 -0.49694,1.1968 -0.650223,-0.348 -1.106778,-0.3655 -1.106778,-0.043 0,0.3024 0.437973,0.7179 0.973273,0.9233 1.483434,0.5693 0.557594,1.0474 -1.182454,0.6107 -1.491525,-0.3744 -1.510841,-0.4394 -0.703758,-2.3711 0.7567,-1.811 0.725289,-2.119 -0.356244,-3.494 -1.407776,-1.7897 -3.00592,-1.914 -5.154995,-0.401 -2.417323,1.702 -3.963994,2.0098 -4.833521,0.9621 -0.620446,-0.7476 -0.62156,-1.2206 -0.006,-2.5308 0.547519,-1.1653 0.838944,-1.3654 1.05287,-0.7229 0.162683,0.4887 0.707134,1.3605 1.209879,1.9374 0.866683,0.9944 1.00068,0.9658 2.583643,-0.5508 1.564695,-1.499 1.608267,-1.6672 0.6938,-2.6777 -0.536662,-0.593 -1.554644,-1.0782 -2.26218,-1.0782 -1.068982,0 -1.245691,-0.2775 -1.045401,-1.6422 0.165805,-1.1297 -0.144019,-1.9907 -0.992702,-2.7588 -1.078695,-0.9762 -1.521307,-1.0303 -3.522063,-0.4309 -6.332515,1.8973 -7.747612,-0.4033 -2.875483,-4.6748 1.648285,-1.4451 1.693722,-1.6176 1.052704,-3.99821 l -0.669936,-2.48796 -3.758224,0 c -3.259319,0 -3.799327,-0.15715 -4.06783,-1.18395 -0.216099,-0.82636 0.172646,-1.52732 1.287148,-2.32092 l 1.596759,-1.13697 -0.246782,2.11384 -0.246782,2.11384 1.981766,-0.39638 c 2.524072,-0.50479 2.95309,-0.95946 2.508719,-2.65873 -0.278027,-1.06317 -0.677334,-1.31503 -1.757587,-1.10854 -1.558678,0.298 -1.91228,-0.42897 -0.476635,-0.97989 0.693107,-0.26597 0.876433,-1.05051 0.740411,-3.16856 l -0.180785,-2.81498 -2.783779,-0.3955 c -3.513706,-0.49916 -4.028001,-0.8295 -4.028001,-2.58735 0,-1.20237 0.476706,-1.56446 3.076028,-2.33638 3.467587,-1.02977 4.009941,-1.60308 4.022848,-4.25245 0.0079,-1.63417 -0.335495,-2.03317 -2.804493,-3.25781 -2.234092,-1.10818 -2.813561,-1.70057 -2.813561,-2.8764 0,-1.08468 0.356511,-1.53147 1.332739,-1.67013 1.103361,-0.15667 1.34079,0.0982 1.379504,1.48082 0.02571,0.91858 0.187703,1.31746 0.359964,0.88642 0.235244,-0.58866 0.647741,-0.46948 1.657289,0.47896 l 1.344094,1.26272 0.397921,-1.58548 c 0.218859,-0.87197 0.25168,-1.73168 0.07293,-1.91044 -0.178747,-0.17871 -0.324993,0.11929 -0.324993,0.66222 0,1.27203 -0.55519,1.25426 -1.544764,-0.0492 -1.185948,-1.56227 -0.985007,-2.09377 0.637642,-1.68648 1.201101,0.30144 1.624171,0.0539 2.369315,-1.38723 1.290542,-2.4956 1.12713,-3.86436 -0.569785,-4.77252 -3.299727,-1.76602 -4.15454,-5.92541 -1.217739,-5.92541 1.712221,0 2.53695,2.32672 1.183378,3.3386 -0.73954,0.55282 -0.522949,0.71719 1.212012,0.91976 2.710892,0.31649 2.848017,0.1212 1.124926,-1.60189 -0.779895,-0.77986 -1.417999,-1.74997 -1.417999,-2.15572 0,-0.57373 0.157956,-0.57971 0.710795,-0.0266 1.187654,1.18767 3.280037,0.79917 4.577172,-0.84988 1.54477,-1.96386 1.541571,-2.71026 -0.01765,-4.1213 -1.933835,-1.7501 -2.890695,-3.96096 -2.227334,-5.14627 0.58727,-1.04943 3.472634,-1.44363 3.472634,-0.47446 0,0.29913 0.161794,0.9655 0.359537,1.48082 0.262295,0.68355 -0.01807,0.95294 -1.036575,0.996 l -1.396113,0.0592 1.425955,0.39893 c 0.784272,0.21946 1.631818,0.92587 1.883433,1.56985 0.391162,1.00115 0.463521,1.02064 0.49912,0.13434 0.02292,-0.57012 0.441451,-1.03658 0.930122,-1.03658 0.488671,0 0.888493,-0.26654 0.888493,-0.59232 0,-0.32578 -0.533096,-0.59233 -1.184657,-0.59233 -0.658143,0 -1.184658,-0.39491 -1.184658,-0.8885 0,-1.00589 0.927551,-1.19141 1.480822,-0.29616 0.644744,1.04321 2.417797,0.63616 3.844634,-0.88263 1.200532,-1.27789 1.293462,-1.6773 0.695583,-2.98954 -0.946968,-2.07836 -0.867418,-2.38703 0.346495,-1.34453 2.31764,1.99034 2.726832,1.96949 2.309359,-0.11787 -0.375418,-1.87709 -0.344404,-1.92086 0.694588,-0.9806 1.464468,1.32533 2.087704,1.23956 1.702288,-0.23433 -0.236209,-0.90324 -0.133926,-1.06518 0.39532,-0.62591 1.851975,1.53697 4.523786,-0.45112 4.523786,-3.36615 l 0,-2.10383 1.370915,1.2879 c 1.91818,1.80204 2.196254,1.63832 2.088261,-1.2295 -0.08627,-2.291 -0.116742,-2.33803 -0.338901,-0.52243 l -0.244111,1.9949 -1.734249,-1.66148 c -2.051649,-1.96564 -2.178419,-2.93747 -0.500311,-3.83556 1.429065,-0.76482 3.035051,0.36167 4.469043,3.13466 0.613511,1.18643 1.29194,1.63033 2.491625,1.63033 2.564624,0 3.494959,-1.13822 3.803799,-4.65369 0.385766,-4.39117 2.49352,-5.54847 4.516032,-2.47949 0.527593,0.80053 0.643346,1.26195 0.257219,1.02532 -0.473419,-0.29012 -0.762759,0.18546 -0.888493,1.46044 -0.226619,2.29806 -1.667269,3.0598 -1.667269,0.88157 0,-0.82233 -0.285485,-1.67161 -0.634402,-1.88728 -0.415127,-0.25654 -0.568677,0.29439 -0.444246,1.59396 0.158163,1.65188 0.455654,2.0167 1.768213,2.16851 1.180393,0.13653 1.678832,-0.13499 1.977958,-1.07744 0.367611,-1.15824 0.459149,-1.17892 1.133616,-0.25654 0.848973,1.16102 3.505887,1.32676 4.747728,0.2961 0.468736,-0.38904 1.036546,-1.54639 1.261806,-2.57201 0.59699,-2.71807 1.55502,-3.97671 3.02696,-3.97671 1.37808,0 1.64559,0.54026 2.27684,4.59824 0.40639,2.61247 1.52113,3.69436 3.80657,3.69436 0.83703,0 1.81035,-0.94471 3.0514,-2.96165 3.02499,-4.91626 6.203609,-3.53412 4.55178,1.97921 -0.63766,2.1283 -0.58435,2.36713 0.75893,3.39961 1.543059,1.18602 4.110259,1.52608 4.110259,0.54447 0,-0.32577 0.28451,-0.59233 0.63225,-0.59233 0.36269,0 0.47194,0.50508 0.25624,1.18466 -0.21569,0.67958 -0.10644,1.18466 0.25625,1.18466 0.34774,0 0.63225,-0.28231 0.63225,-0.62728 0,-0.34503 0.26655,-0.46255 0.59233,-0.26122 0.32578,0.20134 0.59233,0.88346 0.59233,1.51577 0,1.70372 0.78673,1.39535 1.6992,-0.66607 0.73438,-1.65905 0.69094,-1.93585 -0.50341,-3.20716 -1.25238,-1.3331 -1.26103,-1.41608 -0.20648,-1.98045 0.78838,-0.42192 1.42546,-0.35161 2.24536,0.24794 1.12735,0.82435 1.12504,0.88352 -0.15223,3.90671 -1.17914,2.79099 -1.21593,3.1933 -0.4052,4.43068 0.49045,0.74846 1.55471,1.52732 2.36504,1.73066 0.81033,0.20341 1.47333,0.62396 1.47333,0.93458 0,0.31062 0.46341,1.17915 1.02979,1.92998 0.94793,1.25669 1.13631,1.29549 2.36932,0.48755 1.56965,-1.02846 1.73255,-2.87931 0.38454,-4.36884 -0.88971,-0.98315 -0.85152,-1.08124 0.55866,-1.43515 3.24148,-0.81357 3.6462,1.26249 0.95856,4.9171 -1.72728,2.34876 -1.76748,2.5338 -0.9104,4.19119 1.06124,2.05225 2.38667,2.68864 3.9061,1.87544 1.9731,-1.05595 2.10895,-0.61845 0.2922,0.94109 -0.97735,0.83891 -1.33002,1.38652 -0.78372,1.21688 0.54629,-0.16965 1.31194,0.0755 1.70143,0.54482 1.82984,2.20483 3.63231,0.10283 2.02082,-2.35664 -1.00122,-1.52809 -1.0009,-1.52868 0.80356,-1.52868 1.33638,0 1.91197,0.33638 2.21631,1.2953 0.32739,1.03149 -0.10317,1.77504 -2.11405,3.65076 -2.38808,2.22757 -2.49667,2.47078 -2.00011,4.4799 0.44959,1.81899 0.82313,2.17711 2.59822,2.49075 1.14024,0.20145 1.63933,0.40136 1.1091,0.44424 -2.46998,0.19974 -2.85066,3.77965 -0.48186,4.53149 1.03105,0.32727 1.06762,0.49827 0.33133,1.54942 -1.43331,2.04638 -0.0397,5.25129 2.28338,5.25129 0.72594,0 2.15932,0.29261 3.18528,0.65026 3.66378,1.27724 1.56779,4.67572 -3.0287,4.91082 -2.40032,0.12279 -3.77358,5.01228 -1.76962,6.30077 0.95094,0.61141 0.9525,0.64049 0.019,0.35149 -0.55968,-0.17325 -1.16268,-0.0803 -1.33999,0.20661 -0.17732,0.28686 0.14733,0.64415 0.72144,0.79389 0.98623,0.25725 0.98664,0.27609 0.007,0.34101 -1.18717,0.0787 -1.40705,1.59751 -0.29617,2.04572 0.40723,0.16432 0.20732,0.32389 -0.44424,0.35463 -1.84821,0.0871 0.19287,1.20197 2.22123,1.21328 1.94524,0.0107 2.09454,-0.72194 0.37917,-1.86093 l -1.24972,-0.82974 1.34451,-0.10128 c 0.73948,-0.0557 1.50608,-0.36275 1.70356,-0.68225 0.21411,-0.34645 0.86978,-0.17912 1.6244,0.41457 0.98788,0.7772 1.15233,1.28779 0.74992,2.32827 -0.44751,1.15707 -0.94294,1.33275 -3.75876,1.33275 -2.68006,0 -3.40343,0.22864 -4.16539,1.31645 -1.47931,2.11201 -1.09691,3.41253 1.79542,6.10596 2.43876,2.27103 2.64601,2.66423 2.02054,3.83293 -0.62501,1.1678 -0.982,1.2565 -3.45791,0.8588 -4.63266,-0.744 -4.9747,-0.6707 -6.14984,1.3179 l -1.11196,1.8817 2.10234,2.7543 c 2.38679,3.1268 2.40736,3.2045 1.26229,4.7705 -0.82279,1.1252 -0.9094,1.1148 -4.21138,-0.5046 -3.11284,-1.5267 -3.47642,-1.5846 -4.74214,-0.7553 -1.75351,1.149 -2.30556,2.905 -1.42846,4.5439 1.51693,2.8345 1.77034,4.8531 0.75065,5.9799 -0.88109,0.9736 -1.10581,0.9926 -2.32153,0.196 -0.74029,-0.4851 -2.0003,-1.5363 -2.8,-2.336 -1.56697,-1.5669 -2.78499,-1.5346 -4.99082,0.1327 -1.17836,0.8907 -1.26429,1.2475 -0.74041,3.0741 0.83514,2.9119 0.73844,4.5093 -0.33816,5.5859 -1.428409,1.4284 -1.932859,1.1672 -3.920829,-2.0308 -1.38554,-2.2289 -2.19518,-2.9617 -3.27228,-2.9617 -1.90739,0 -3.72266,1.0212 -3.72266,2.094 0,1.2146 -1.04072,1.0861 -1.36868,-0.1689 -0.20385,-0.78 -0.28789,-0.7068 -0.3396,0.2962 -0.0821,1.5923 -1.11642,1.7312 -2.2058,0.2961 -0.69994,-0.922 -0.78896,-0.795 -0.80571,1.1497 -0.0104,1.2025 0.24771,2.3511 0.57349,2.5524 0.32578,0.2013 0.59233,-0.049 0.59233,-0.5574 0,-1.2956 1.35,-1.1508 2.21723,0.2378 0.96616,1.5471 0.33888,2.9851 -1.30215,2.9851 -1.25873,0 -2.28594,-1.6027 -3.51175,-5.4791 -0.44988,-1.4226 -4.972173,-1.4759 -5.513615,-0.065 -0.325046,0.847 -0.45553,0.8593 -1.017988,0.096 -0.899836,-1.2211 -2.237308,-1.5949 -3.458708,-0.9668 -1.403878,0.7221 -1.315603,2.2685 0.129495,2.2685 0.836363,0 1.060891,-0.2741 0.794106,-0.9694 -0.255756,-0.6664 -0.111157,-0.8824 0.462834,-0.6913 1.058882,0.3526 1.436758,2.1841 0.619285,3.0016 -0.43548,0.4355 -0.901832,0.3912 -1.550681,-0.1473 -0.510356,-0.4236 -1.113667,-0.5844 -1.340694,-0.3573 -0.655643,0.6556 1.197978,1.5836 2.662642,1.333 1.515692,-0.2594 1.566484,-0.1589 0.719572,1.4236 -0.338018,0.6316 -1.235094,1.1457 -1.999109,1.1457 -1.078394,0 -1.468093,-0.4108 -1.756148,-1.851 z m -8.483497,-3.3318 c 0.137076,-0.2444 0.43612,-1.2239 0.664533,-2.1766 0.360657,-1.5044 0.296905,-1.6341 -0.484483,-0.9856 -0.494891,0.4107 -1.159602,0.5862 -1.477143,0.3899 -0.317542,-0.1962 -0.734642,-0.1023 -0.926894,0.2088 -0.192258,0.3111 0.122511,0.8551 0.699481,1.209 0.781506,0.4794 0.822448,0.6219 0.160539,0.5586 -0.488672,-0.047 -1.288315,-0.049 -1.776986,-0.01 -0.78977,0.07 -0.78977,0.143 0,0.6534 1.062258,0.6865 2.793125,0.7681 3.140953,0.1481 z m 35.056537,-4.3093 c -1.33638,-2.5843 -1.76683,-1.816 -0.55321,0.9874 0.54412,1.2569 1.10902,1.9702 1.25534,1.585 0.146309,-0.3851 -0.16965,-1.5427 -0.70213,-2.5724 z m -12.39612,-2.9778 c 6.10311,-0.9465 9.92388,-2.5073 10.86792,-4.4396 0.96449,-1.9741 1.25678,-1.3322 -6.11898,-13.4397 -4.11473,-6.75455 -4.8255,-7.61343 -6.7866,-8.20102 -2.5583,-0.76647 -6.54099,0.0533 -7.849918,1.61593 -1.026872,1.22589 -7.022447,18.16669 -7.423122,20.97449 -0.404525,2.8347 0.695145,3.638 5.614713,4.1014 4.146591,0.3906 5.786904,0.3049 11.695987,-0.6115 z m 21.898609,-2.3189 c -0.93048,-1.0282 -0.92503,-1.136 0.0873,-1.7247 0.99219,-0.577 0.97167,-0.6295 -0.25291,-0.646 -0.889,-0.012 -1.33274,0.3325 -1.33274,1.0349 0,1.4213 1.92293,4.1364 2.2451,3.1699 0.13519,-0.4056 -0.20085,-1.2309 -0.74675,-1.8341 z m -46.476382,-1.8172 c 0.630143,-0.3372 1.145717,-0.9407 1.145717,-1.3411 0,-0.4003 1.485371,-5.2268 3.300823,-10.7255 1.896287,-5.7436 3.16127,-10.52883 2.972862,-11.24596 -0.558589,-2.1261 -4.400078,-5.69075 -6.132734,-5.69075 -1.273045,0 -8.922626,2.56201 -19.843414,6.64594 -2.45214,0.91704 -2.715821,3.04617 -0.824587,6.65837 2.143164,4.0934 6.259546,8.6719 11.539831,12.8354 4.448287,3.5074 5.750161,3.9828 7.841502,2.8636 z m 57.749312,-6.6951 c 1.51102,0.5798 0.90681,-0.7212 -0.98421,-2.1194 -1.76005,-1.3012 -1.82058,-1.3076 -1.45421,-0.1533 0.31301,0.9863 0.0823,1.2481 -1.27323,1.4448 l -1.65552,0.2403 1.92507,0.468 c 1.3728,0.3337 1.95053,0.8291 2.01382,1.7267 0.066,0.9353 0.15133,0.8486 0.33237,-0.3378 0.16685,-1.0932 0.51223,-1.4933 1.09591,-1.2693 z m -3.91843,-9.7462 c 1.33657,-2.24979 3.12642,-6.12107 3.97745,-8.60293 1.46838,-4.28225 1.49717,-4.58908 0.56431,-6.0128 -0.84334,-1.28707 -1.42293,-1.50108 -4.07908,-1.50617 -1.70284,-0.006 -6.54149,-0.39041 -10.75254,-0.86036 -8.656219,-0.96609 -9.965059,-0.64392 -12.227459,3.00932 -1.88207,3.03919 -1.49886,5.74744 1.44554,10.2162 1.4241,2.16144 4.06998,6.24104 5.879719,9.06584 4.24951,6.6329 4.91353,6.7889 9.4025,2.209 1.84769,-1.8852 4.453,-5.2683 5.78956,-7.5181 z m -77.682466,3.015 c 0.184386,-1.2196 -1.400781,-2.9999 -2.072807,-2.3279 -0.212682,0.2127 0.08987,0.7352 0.672328,1.1611 0.994645,0.7273 0.998116,0.8353 0.0571,1.7763 -1.087581,1.0876 -2.091086,0.8357 -2.091086,-0.5247 0,-0.4695 -0.266548,-0.8536 -0.592329,-0.8536 -0.917653,0 -0.699244,1.5855 0.365011,2.6498 0.835462,0.8354 1.118239,0.851 2.221232,0.1225 0.695145,-0.4592 1.343396,-1.3607 1.440562,-2.0035 z m 86.830756,-4.4601 c 0.85014,0.3874 1.54571,0.4758 1.54571,0.1965 0,-0.2793 -0.82426,-0.8492 -1.83169,-1.2665 -1.52931,-0.63343 -1.91895,-0.62087 -2.36025,0.0762 -0.90972,1.437 -0.66257,2.7006 0.27691,1.4158 0.70701,-0.96688 1.04244,-1.02658 2.36932,-0.4221 z M 51.412599,986.20121 c 4.994403,-1.96712 9.446683,-4.06462 9.893957,-4.66109 1.136234,-1.5153 1.711184,-5.84326 1.072221,-8.07119 -0.40106,-1.39843 -1.349425,-2.3317 -3.775639,-3.71556 -1.782027,-1.01649 -5.882719,-3.46417 -9.112651,-5.43935 -6.626696,-4.0523 -7.647331,-4.11231 -9.424169,-0.55383 -2.544834,5.09645 -4.066076,17.68291 -2.79796,23.14963 0.990623,4.27046 1.577431,4.24102 14.144241,-0.70861 z m 30.728532,-2.2108 c 2.37516,-1.54604 3.09434,-2.67857 3.11571,-4.90644 0.0259,-2.6983 -0.91179,-4.2098 -3.20638,-5.16854 -2.427325,-1.01419 -5.800519,-0.22799 -7.123064,1.66024 -1.179978,1.68464 -1.195509,6.56774 -0.02399,7.54004 0.485082,0.40255 0.737787,0.96526 0.561564,1.25035 -0.176224,0.28515 0.136987,0.34296 0.696021,0.12842 0.702159,-0.26945 0.880349,-0.16988 0.576324,0.32205 -0.675219,1.09255 3.417453,0.46687 5.403805,-0.82612 z m -1.332266,-7.42431 c -0.214737,-0.34746 -0.248203,-0.774 -0.07437,-0.94785 0.424293,-0.42428 1.579543,0.32336 1.579543,1.02219 0,0.75699 -1.0226,0.70647 -1.505176,-0.0743 z m -48.842761,5.66651 c -0.545753,-0.6576 -0.56594,-1.0951 -0.07767,-1.6834 0.362843,-0.4372 0.494962,-0.95969 0.293594,-1.16102 -0.423266,-0.42328 -3.515092,1.06441 -4.066556,1.9567 -0.399425,0.64629 1.663348,1.67718 3.478913,1.73866 0.919685,0.0314 0.98317,-0.1142 0.371715,-0.85094 z m 89.717406,-3.82763 c 2.20063,-2.43163 -0.4886,-14.25693 -5.05869,-22.24443 -2.30361,-4.02617 -2.70582,-4.43287 -4.38399,-4.43287 -1.5853,0 -2.95824,1.12152 -9.66779,7.89746 -6.990279,7.05943 -7.818719,8.11224 -7.807089,9.92151 0.0163,2.53084 1.90021,6.77683 3.34253,7.53335 0.5978,0.31358 5.218419,0.89347 10.268019,1.28867 5.0496,0.39526 9.29216,0.82654 9.4279,0.95851 0.66885,0.65026 2.946,0.10887 3.87911,-0.9222 z m 10.32405,-0.38981 c 0.12874,-0.10976 -0.40435,-0.44513 -1.18466,-0.74533 -1.24118,-0.47741 -1.28901,-0.59813 -0.38216,-0.96454 1.05364,-0.42577 1.46529,-2.06913 0.51829,-2.06913 -1.55047,0 -4.16117,0.80119 -3.91397,1.20119 0.15793,0.25553 0.8866,0.34301 1.61929,0.1944 l 1.33215,-0.27016 -1.33274,0.99037 c -2.12716,1.58069 -1.71366,2.60714 0.88849,2.2056 1.22168,-0.18854 2.32657,-0.43258 2.45531,-0.5424 z M 69.639062,965.32216 c 4.532073,-2.19393 4.625306,-2.59523 3.536226,-15.22125 -1.186837,-13.75932 -1.235568,-13.82643 -8.035146,-11.06351 -4.50864,1.83207 -9.251031,4.77861 -13.516259,8.39797 -3.843017,3.26113 -5.069475,5.03563 -4.569407,6.61116 0.394348,1.24253 17.685489,12.46668 19.227765,12.48131 0.467258,0.006 1.977827,-0.53813 3.356821,-1.20568 z m 28.770199,-10.27838 c 9.536429,-9.80239 9.670169,-10.54203 2.563129,-14.17455 -5.331559,-2.72501 -9.057949,-3.90629 -14.540469,-4.60938 -5.11605,-0.65612 -5.46086,-0.63 -6.590411,0.49957 -1.182395,1.1824 -1.183834,1.27884 -0.179843,12.07829 1.106185,11.89876 1.350614,12.55642 5.184934,13.94976 3.98297,1.44735 5.41815,0.62792 13.56266,-7.74369 z m -0.87601,-22.0601 c 0.22837,-0.59511 -0.0501,-1.28417 -0.71576,-1.77089 -0.59927,-0.4382 -0.89463,-0.99167 -0.65637,-1.22991 0.23827,-0.23829 0.67078,-0.0486 0.96113,0.42097 0.29036,0.46978 0.70238,0.6797 0.9156,0.46652 0.62957,-0.62959 -0.3034,-1.65118 -1.50792,-1.65118 -1.59955,0 -2.04684,1.08935 -0.94652,2.30517 1.35411,1.49628 1.17119,2.22804 -0.23814,0.95264 -1.24285,-1.12477 -1.42051,-1.00767 -0.82512,0.54388 0.47227,1.23074 2.53634,1.20521 3.0131,-0.0373 z m -11.64831,-4.94915 c 0.31647,0 0.5754,-0.26654 0.5754,-0.59232 0,-0.32578 -0.79965,-0.59233 -1.77699,-0.59233 -0.97734,0 -1.77698,0.26655 -1.77698,0.59233 0,0.32578 0.26655,0.59232 0.59233,0.59232 0.32578,0 0.61637,0.86629 0.64575,1.92507 l 0.0534,1.92507 0.55583,-1.92507 c 0.30572,-1.05878 0.81478,-1.92507 1.13123,-1.92507 z m -43.849249,86.84867 c 0,-0.4487 0.396671,-1.1451 0.881486,-1.5475 0.716641,-0.5948 0.954319,-0.5417 1.270972,0.2834 0.227975,0.5941 0.04668,1.2321 -0.43724,1.5385 -1.181447,0.7481 -1.715218,0.6627 -1.715218,-0.2744 z M 30.189118,993.78303 c 0,-0.32578 0.266548,-0.59233 0.592329,-0.59233 0.325781,0 0.592329,0.26655 0.592329,0.59233 0,0.32578 -0.266548,0.59233 -0.592329,0.59233 -0.325781,0 -0.592329,-0.26655 -0.592329,-0.59233 z m 1.776986,-0.59233 c 0,-0.32578 0.266548,-0.59233 0.592329,-0.59233 0.325781,0 0.592329,0.26655 0.592329,0.59233 0,0.32578 -0.266548,0.59233 -0.592329,0.59233 -0.325781,0 -0.592329,-0.26655 -0.592329,-0.59233 z m 97.023436,-26.77327 c 0.9252,-0.92521 0.90967,-2.99629 -0.0296,-3.9516 -0.597,-0.60719 -0.33887,-0.71618 1.33274,-0.56271 2.81687,0.25861 3.15269,2.21732 0.68182,3.97672 -1.89947,1.35252 -3.13434,1.68701 -1.98494,0.53759 z m -2.61809,-1.33398 c -0.42449,-1.10617 0.19562,-2.10152 1.30928,-2.10152 1.21037,0 1.77989,1.78255 0.77318,2.42002 -1.17773,0.74574 -1.70503,0.66506 -2.08246,-0.3185 z m -3.18673,-12.17111 c 0,-0.32578 0.26654,-0.59233 0.59233,-0.59233 0.32578,0 0.59232,0.26655 0.59232,0.59233 0,0.32578 -0.26654,0.59233 -0.59232,0.59233 -0.32579,0 -0.59233,-0.26655 -0.59233,-0.59233 z m -8.14452,-8.1168 c -1.06481,-0.39479 -0.91176,-1.76028 0.24713,-2.205 1.44803,-0.55566 2.43186,0.65292 1.35638,1.66622 -0.47471,0.44733 -1.19629,0.68977 -1.60351,0.53878 z m -65.89115,-5.20408 c -0.402582,-0.48506 -0.968315,-0.73591 -1.257182,-0.55738 -0.938953,0.5803 -0.55343,-2.53848 0.41293,-3.3405 1.102075,-0.91461 2.327064,-0.32595 3.735379,1.79511 0.894867,1.34773 0.8835,1.37041 -0.354745,0.70772 -1.817555,-0.97272 -2.019166,-0.87238 -1.600372,0.79621 0.423118,1.68582 0.124608,1.87679 -0.93601,0.59884 z m 57.53531,-3.79167 c -0.48817,-0.30931 -0.57265,-0.65198 -0.2152,-0.87292 0.32365,-0.20003 0.91784,0.0332 1.32042,0.5183 0.79928,0.96306 0.17245,1.16415 -1.10522,0.35462 z"
       id="path5716"
       inkscape:connector-curvature="0"
       sodipodi:nodetypes="cssssssssscscsscscsscsccscsssssscscsccccsccsccssccscccscccsccccscccscsscsscccscsssscscsssccscsssccscssccsscsssscssssssssssssssssscsccsccccssccsssscssccscscscscccsccccccsssssscscscssscsssssssscsssssssscccscsscccsscccscscscccccsccsssscsscscccssccsssscsscccccccsccssscsssssscccssscscccscsccssscsssscssscccsccccsccccsccsssssccsscccscccsccssssccsssssssscccccssssccsssssscssssccssssssssssssssssssssssssssscscsccssccccc" />
  </g>
</svg>
