<?xml version="1.0" encoding="UTF-8" standalone="no"?>
<!-- Created with Inkscape (http://www.inkscape.org/) -->

<svg
   xmlns:dc="http://purl.org/dc/elements/1.1/"
   xmlns:cc="http://creativecommons.org/ns#"
   xmlns:rdf="http://www.w3.org/1999/02/22-rdf-syntax-ns#"
   xmlns:svg="http://www.w3.org/2000/svg"
   xmlns="http://www.w3.org/2000/svg"
   xmlns:xlink="http://www.w3.org/1999/xlink"
   xmlns:sodipodi="http://sodipodi.sourceforge.net/DTD/sodipodi-0.dtd"
   xmlns:inkscape="http://www.inkscape.org/namespaces/inkscape"
   width="500"
   height="500"
   viewBox="0 0 499.99997 500.00001"
   id="svg5282"
   version="1.1"
   inkscape:version="0.91 r13725"
   sodipodi:docname="drawing4.svg"
   inkscape:export-filename="/home/mark/repos/lrwebsite/roomImage.png"
   inkscape:export-xdpi="90"
   inkscape:export-ydpi="90">
  <defs
     id="defs5284">
    <linearGradient
       id="linearGradient6011">
      <stop
         id="stop6013"
         offset="0"
         style="stop-color:#d7d7d7;stop-opacity:1" />
      <stop
         id="stop6015"
         offset="1"
         style="stop-color:#d7d7d7;stop-opacity:0;" />
    </linearGradient>
    <linearGradient
       inkscape:collect="always"
       xlink:href="#linearGradient6011"
       id="linearGradient5393"
       x1="1333.2068"
       y1="528.2959"
       x2="1094.3383"
       y2="528.2959"
       gradientUnits="userSpaceOnUse"
       gradientTransform="matrix(1.2154566,0,0,1.2154566,-1297.8226,205.0027)" />
    <linearGradient
       id="linearGradient5387">
      <stop
         style="stop-color:#d7d7d7;stop-opacity:1;"
         offset="0"
         id="stop5389" />
      <stop
         style="stop-color:#d7d7d7;stop-opacity:0;"
         offset="1"
         id="stop5391" />
    </linearGradient>
    <linearGradient
       inkscape:collect="always"
       xlink:href="#linearGradient5387"
       id="linearGradient5079"
       x1="1333.2068"
       y1="528.2959"
       x2="1094.3383"
       y2="528.2959"
       gradientUnits="userSpaceOnUse"
       gradientTransform="translate(-392.32294,-269)" />
  </defs>
  <sodipodi:namedview
     id="base"
     pagecolor="#ffffff"
     bordercolor="#666666"
     borderopacity="1.0"
     inkscape:pageopacity="0.0"
     inkscape:pageshadow="2"
     inkscape:zoom="0.8131728"
     inkscape:cx="266.33532"
     inkscape:cy="209.37088"
     inkscape:document-units="px"
     inkscape:current-layer="layer1"
     showgrid="false"
     units="px"
     inkscape:snap-page="true"
     inkscape:snap-bbox="true"
     inkscape:snap-intersection-paths="true"
     inkscape:object-paths="true"
     inkscape:object-nodes="true"
     inkscape:snap-smooth-nodes="true"
     inkscape:bbox-paths="true"
     inkscape:snap-global="true"
     inkscape:window-width="1004"
     inkscape:window-height="1341"
     inkscape:window-x="3616"
     inkscape:window-y="280"
     inkscape:window-maximized="0" />
  <metadata
     id="metadata5287">
    <rdf:RDF>
      <cc:Work
         rdf:about="">
        <dc:format>image/svg+xml</dc:format>
        <dc:type
           rdf:resource="http://purl.org/dc/dcmitype/StillImage" />
        <dc:title></dc:title>
      </cc:Work>
    </rdf:RDF>
  </metadata>
  <g
     inkscape:label="Layer 1"
     inkscape:groupmode="layer"
     id="layer1"
     transform="translate(0,-552.36216)">
    <path
       style="font-style:normal;font-variant:normal;font-weight:500;font-stretch:normal;font-size:160.91099548px;line-height:125%;font-family:'Palladio URW';-inkscape-font-specification:'Palladio URW Medium';letter-spacing:0px;word-spacing:0px;fill:#333333;fill-opacity:1;stroke:none"
       d="m 242.43461,987.1981 -14.67278,-21.6105 -14.67861,14.6106 c -8.07321,8.0359 -14.67857,15.5562 -14.67857,16.7121 0,1.1558 -1.48824,2.1014 -3.3072,2.1014 -1.81894,0 -3.27936,-0.9301 -3.24536,-2.0669 0.0341,-1.1369 13.31609,-67.17749 29.51571,-146.7569 23.50007,-115.44202 29.05368,-145.19125 27.47389,-147.17024 -3.4354,-4.30364 -4.18739,-8.388 -2.22922,-12.10839 2.57008,-4.88299 4.61147,-6.02612 10.81456,-6.05589 8.89053,-0.0428 13.5872,10.27982 7.65815,16.83134 -2.60836,2.88218 -1.1386,11.50928 25.09461,147.30049 15.32585,79.33141 28.19326,145.91319 28.59417,147.95959 0.57132,2.9161 -0.0281,3.7206 -2.77106,3.7206 -1.92498,0 -3.49997,-0.5796 -3.49997,-1.2879 0,-1.4974 -24.37069,-30.7518 -26.13982,-31.378 -0.65361,-0.2313 -6.74761,8.884 -13.54218,20.2565 -3.45186,5.7776 -8.63985,13.6927 -8.63985,13.6927 -4.03908,-1.6752 -7.00617,-0.7233 -11.04481,0.4135 0,0 -6.43344,-8.8777 -10.70166,-15.1641 z m 13.84597,-18.2224 0,-30.03609 -11.98859,11.43309 c -6.59372,6.2882 -12.22128,11.9451 -12.5057,12.571 -0.46671,1.027 22.86063,36.068 24.01101,36.068 0.26581,0 0.48328,-13.5162 0.48328,-30.036 z m 18.00373,9.8042 c 5.66734,-9.4681 8.1856,-15.2333 7.30968,-16.7347 -2.6873,-4.6066 -19.56788,-24.02439 -20.96753,-24.11906 -0.80309,-0.0544 -1.00394,12.17226 -0.45332,27.60026 0.54362,15.2338 1.00639,29.1655 1.02832,30.9595 0.0397,3.2466 0.05,3.2466 2.23846,0 1.20915,-1.794 6.08916,-9.7616 10.84439,-17.706 z m 32.04173,-13.3595 c -2.45281,-12.447 -4.85691,-22.61561 -5.34239,-22.59675 -0.4855,0.018 -3.58196,4.64111 -6.881,10.27165 l -5.99828,10.2375 10.88895,12.811 c 5.98889,7.0461 11.09217,12.6077 11.34064,12.3593 0.24846,-0.2484 -1.55508,-10.6357 -4.00792,-23.0827 z m -84.22789,-7.675 c -5.54566,-8.64485 -11.31838,-16.54011 -12.11832,-16.57395 -0.45474,-0.0202 -2.61511,9.08035 -4.80072,20.22125 -2.18568,11.141 -4.33504,21.3724 -4.77629,22.7367 -0.44128,1.3642 4.86695,-3.0674 11.79608,-9.848 12.54287,-12.274 12.58653,-12.3469 9.89925,-16.536 z m 72.724,-13.30019 4.64276,-8.27018 -12.91074,-0.13799 c -7.10095,-0.0755 -14.58508,-0.32349 -16.63139,-0.55044 -2.04633,-0.2269 -3.72058,0.0453 -3.72058,0.60506 0,0.55975 4.21523,6.09614 9.36724,12.30304 10.65156,12.8325 9.72466,13.0227 19.25271,-3.94964 z m -55.53547,2.93936 c 5.70873,-5.65795 10.37953,-10.86681 10.37953,-11.57517 0,-0.70838 -8.55737,-1.288 -19.01642,-1.288 -10.459,0 -19.01637,0.33643 -19.01637,0.74758 0,1.45425 15.15395,22.40282 16.20595,22.40282 0.58734,0 5.73862,-4.6292 11.44731,-10.28723 z M 295.91431,931.352 c -0.029,-0.53051 -3.70253,-5.05723 -8.16355,-10.05938 l -8.11086,-9.09478 -9.26785,9.09478 -9.26784,9.0948 15.3644,0.82679 c 8.45038,0.45475 16.2945,0.88881 17.43136,0.96462 1.13682,0.0755 2.04331,-0.29629 2.01434,-0.82683 z m -41.3518,-1.37799 c -0.0352,-0.6821 -3.94209,-5.54593 -8.68138,-10.80853 l -8.61691,-9.56826 -10.70061,10.8085 -10.70064,10.80849 19.38197,0 c 10.66013,0 19.35303,-0.55808 19.31757,-1.2402 z m -21.51873,-20.97923 c 1.68698,-2.03273 0.81996,-3.90913 -4.99003,-10.7994 -3.86747,-4.58663 -7.37303,-7.99805 -7.79014,-7.58092 -0.41707,0.4171 -2.17197,7.67634 -3.89972,16.13165 -1.7278,8.45532 -3.60034,16.83698 -4.16124,18.62593 -0.67873,2.16463 2.29476,0.38105 8.88972,-5.33223 5.4503,-4.72166 10.82844,-9.6919 11.95141,-11.04503 z m 63.15933,4.02984 c -1.38671,-7.27581 -2.98404,-13.22879 -3.54973,-13.22879 -0.56567,0 -3.17651,2.24208 -5.80189,4.98238 l -4.77337,4.9823 8.12246,8.24647 c 4.46731,4.53553 8.21275,8.24644 8.32314,8.24644 0.11038,0 -0.93391,-5.95297 -2.32061,-13.2288 z m -39.92253,-4.27292 0,-15.84816 -6.76556,5.35841 c -3.72107,2.94713 -7.13814,6.3294 -7.59355,7.5162 -0.67415,1.75679 11.82977,18.82167 13.79117,18.82167 0.31235,0 0.56794,-7.13167 0.56794,-15.84812 z m 13.25327,8.382 7.32745,-7.46617 -8.63676,-8.63674 -8.63677,-8.63678 0,16.1029 c 0,8.85661 0.58921,16.10291 1.30931,16.10291 0.72014,0 4.60666,-3.35976 8.63677,-7.46612 z m 16.18477,-17.35967 c 3.51631,-4.23475 4.98839,-7.35115 4.13398,-8.75183 -0.72975,-1.1964 -6.10247,-9.01327 -11.93936,-17.3708 -8.22774,-11.78093 -11.47908,-15.19553 -14.46897,-15.19553 -3.72114,0 -3.8565,0.46862 -3.8565,13.34968 l 0,13.34966 9.38844,10.62753 c 5.16364,5.8451 9.81439,10.61409 10.33502,10.59767 0.52057,-0.0181 3.4039,-2.98924 6.40739,-6.60638 z m -37.99365,-5.47458 8.69425,-8.80358 -0.29432,-12.6932 c -0.16197,-6.98124 -0.61143,-12.6932 -0.99902,-12.6932 -1.46459,0 -33.57085,22.33774 -33.57085,23.35669 0,1.55234 15.08659,19.63687 16.38159,19.63687 0.60177,0 5.00655,-3.9616 9.78835,-8.80358 z m 40.18444,-23.85497 -2.70655,-12.8154 -5.77975,0.57127 c -3.17883,0.31419 -6.02278,0.80528 -6.31987,1.09132 -0.54689,0.52659 16.09296,23.9682 17.01369,23.9682 0.27447,0 -0.71889,-5.76694 -2.20752,-12.81539 z m -50.89957,-10.01129 c -5.12733,-0.2767 -9.92002,0.0954 -10.6504,0.82681 -0.73039,0.73141 -1.85211,4.61042 -2.49263,8.62003 l -1.16475,7.29007 11.81509,-8.11691 11.81515,-8.11691 z m 17.84033,-6.24925 c 1.99762,-1.23457 -0.64001,-14.64513 -3.6417,-18.51563 l -2.92469,-3.77121 -7.8585,10.38557 c -4.3222,5.71209 -8.6619,11.43022 -9.64379,12.70695 -1.51368,1.96813 0.0966,2.13589 10.58388,1.10255 6.80308,-0.67032 12.8712,-1.529 13.4848,-1.90823 z m 25.821,-0.66628 c 4.14391,-0.0252 4.46444,-1.15805 2.09259,-7.39649 l -1.62804,-4.28204 -6.63998,4.39413 c -3.65199,2.41678 -6.63996,4.91531 -6.63996,5.55239 0,2.3724 2.49889,3.52697 5.74556,2.65458 1.84205,-0.49501 5.02348,-0.91015 7.06983,-0.92257 z m -38.99348,-31.40111 c -2.35384,-3.20506 -4.49583,-6.13745 -4.76001,-6.51643 -0.26414,-0.37896 -0.8549,-0.31433 -1.31284,0.14345 -0.99948,0.99953 -7.43542,30.65615 -7.43542,34.26225 0,1.39249 4.00228,-3.00181 8.89399,-9.76508 l 8.89405,-12.29684 -4.27977,-5.82744 z m 35.8752,17.12572 c 0.7843,-0.59408 -16.49868,-20.47267 -17.79971,-20.47292 -1.95477,-2.7e-4 0.70189,24.35073 2.95214,27.0591 2.36485,2.84626 2.43581,2.8148 14.84757,-6.58618 z m 1.39027,-15.51195 -2.05292,-9.09478 -6.99762,-0.50851 c -3.84871,-0.27964 -6.99764,-0.044 -6.99764,0.52419 0,1.78413 17.31809,20.7952 17.71945,19.45162 0.20993,-0.70275 -0.54218,-5.37039 -1.67127,-10.37252 z m -24.36647,3.72061 c -0.0431,-3.9008 -0.29097,-4.13404 -1.74307,-1.64051 -0.93107,1.59878 -1.23658,3.64513 -0.67892,4.54742 1.70971,2.76638 2.47457,1.84838 2.42199,-2.90691 z m -2.52387,-7.39576 c 3.75044,-5.35451 3.21067,-6.40572 -2.74981,-5.35565 -6.76464,1.19177 -6.91943,1.39132 -4.31444,5.56258 2.7395,4.38661 3.87,4.3535 7.06425,-0.20704 z m 2.49016,-26.50301 -0.0839,-16.9494 -8.10002,15.70919 c -4.45498,8.64008 -8.13774,16.26726 -8.18393,16.9494 -0.0461,0.68209 3.63658,1.24017 8.18393,1.24017 l 8.26803,0 z m 19.90389,15.70919 c -0.0329,-1.74645 -13.12202,-25.69354 -15.13938,-27.6978 -1.1164,-1.1091 -1.38609,3.24659 -0.8192,13.2288 0.46486,8.18533 0.90243,15.06842 0.97235,15.29576 0.32886,1.06942 15.00666,0.25966 14.98623,-0.82676 z M 246.5067,783.75018 c 6.75171,-13.42854 6.78014,-13.56222 4.08159,-19.22111 -1.49461,-3.13418 -3.14679,-5.26923 -3.67147,-4.74455 -0.52471,0.52474 -2.36765,7.87201 -4.09537,16.3273 -1.72779,8.45534 -3.5491,16.67555 -4.04735,18.26712 -2.13109,6.80704 1.42073,1.92494 7.7326,-10.62876 z m 22.94883,-9.15079 c -1.9768,-9.81189 -3.83767,-18.09795 -4.1352,-18.41345 -0.29759,-0.3155 -2.11356,2.50876 -4.03557,6.27615 l -3.49452,6.84984 7.09977,13.14749 c 3.90486,7.23111 7.33825,12.43475 7.62975,11.56363 0.2915,-0.87111 -1.08741,-9.61172 -3.06423,-19.42366 z M 254.627,756.7596 c 0,-4.66946 -0.6338,-5.78758 -3.28047,-5.78758 -3.17235,0 -3.18952,0.19051 -0.52052,5.78758 1.51794,3.18318 2.99416,5.78757 3.28042,5.78757 0.28631,0 0.52057,-2.60439 0.52057,-5.78757 z m 6.61438,-2.48039 c 1.41269,-2.63967 1.25754,-3.30719 -0.76861,-3.30719 -1.43619,0 -2.53859,1.43616 -2.53859,3.30719 0,1.81895 0.34589,3.30719 0.7686,3.30719 0.42276,0 1.5651,-1.48824 2.5386,-3.30719 z m -7.08745,-19.14819 c 0.39983,-12.93324 -1.88837,-10.27312 -3.84395,4.46881 -0.91293,6.88203 -0.68788,8.35641 1.18121,7.73825 1.63137,-0.53957 2.41281,-4.12187 2.66274,-12.20706 z m 9.07951,7.42869 c -0.2686,-2.19433 -1.48852,-8.08234 -2.71096,-13.0845 l -2.22259,-9.09481 -0.18305,12.53981 c -0.10053,6.89688 0.32872,13.05136 0.95398,13.67665 2.22851,2.22851 4.64273,-0.11312 4.16242,-4.03715 z m 178.25017,114.24258 c -10.45902,-5.36295 -19.57446,-9.78921 -20.25658,-9.83622 -0.68209,-0.0468 -1.24021,1.77495 -1.24021,4.04864 0,2.27369 -0.46236,4.13398 -1.02747,4.13398 -0.56511,0 -11.7171,-6.69706 -24.78218,-14.8824 -13.06507,-8.18532 -24.50865,-14.88234 -25.43009,-14.88234 -0.92149,0 -1.6754,2.60438 -1.6754,5.78755 0,3.18318 -0.39372,5.7876 -0.87489,5.7876 -0.48124,0 -14.68079,-11.53385 -31.55455,-25.63079 -16.87379,-14.09691 -30.06024,-25.63053 -29.30326,-25.63025 0.757,2.8e-4 8.71899,2.62511 17.69326,5.83296 l 16.31695,5.83243 -0.73477,-5.00613 c -0.40408,-2.7534 -0.45392,-5.00616 -0.11084,-5.00616 0.34321,0 10.34356,4.4647 22.22301,9.92158 11.87944,5.45689 22.24533,9.9216 23.03526,9.9216 0.78995,0 1.90319,-1.86031 2.47386,-4.13399 0.57064,-2.27369 1.70886,-4.134 2.52929,-4.134 0.82046,0 17.29642,14.62155 36.61335,32.49231 19.31685,17.87079 35.82844,33.12523 36.69244,33.89876 3.68968,3.30337 -2.66166,0.67641 -20.58731,-8.51513 z m -403.340201,2.69119 c 7.837711,-7.00752 83.647861,-67.70965 85.402771,-68.38305 2.00443,-0.76918 2.25559,0.0364 1.32787,4.26046 -0.76468,3.4815 -0.51479,5.20906 0.7535,5.20906 1.04366,0 12.95801,-5.95296 26.47635,-13.22879 13.51831,-7.27583 24.9551,-13.22879 25.41511,-13.22879 0.45999,0 -1.66159,5.39295 -4.71467,11.98431 -3.05305,6.59135 -5.27827,12.25703 -4.94491,12.59041 0.33338,0.33337 10.01467,-4.37164 21.51404,-10.45553 11.49937,-6.08391 21.14815,-10.81945 21.44175,-10.52343 0.47677,0.4807 -37.92979,31.88442 -58.89275,48.15446 l -8.08654,6.27629 0,-5.03607 c 0,-2.76983 -0.28437,-5.03607 -0.63191,-5.03607 -0.34753,0 -14.11374,7.37303 -30.59158,16.38451 -16.477799,9.01147 -29.959688,15.88967 -29.959688,15.28488 0,-0.60486 0.731385,-3.64989 1.625321,-6.76684 0.89392,-3.11691 1.359007,-5.93347 1.033513,-6.25895 -0.325495,-0.32551 -10.75338,3.90392 -23.173097,9.39864 -20.324402,8.99202 -26.084093,11.24222 -23.99508,9.3745 z M 162.85229,717.78809 c -23.64646,-8.13282 -44.10976,-15.20911 -45.47396,-15.72508 -1.93122,-0.7304 -1.61419,-1.40488 1.43199,-3.04639 3.72486,-2.00719 2.63474,-2.84316 -22.736954,-17.4365 -14.657163,-8.43052 -26.649382,-15.59204 -26.649382,-15.91444 0,-0.32242 2.410778,-1.21094 5.357319,-1.97447 L 80.138637,662.303 61.615842,648.42263 c -10.187561,-7.63419 -18.351449,-14.05175 -18.141968,-14.26117 0.321597,-0.32161 100.073136,26.03672 105.842186,27.96766 1.07859,0.36099 -1.95136,1.95706 -6.73317,3.54682 -4.78179,1.58974 -8.32994,3.47988 -7.88468,4.20032 0.44527,0.72044 9.75995,6.29867 20.69932,12.39608 10.93934,6.09737 19.4929,11.72825 19.00787,12.51298 -0.48497,0.78478 -4.24523,1.93123 -8.35608,2.54766 -4.11084,0.61646 -7.25364,1.78285 -6.98393,2.59195 0.26968,0.80908 11.99199,8.53297 26.04955,17.16425 14.05755,8.6313 24.47283,15.64657 23.14503,15.58954 -1.32776,-0.0572 -21.7612,-6.75783 -45.40768,-14.89063 z m 154.46818,1.55844 c 9.24891,-7.38976 16.45108,-13.80105 16.00481,-14.24729 -0.44623,-0.44627 -3.26749,-1.31957 -6.26942,-1.94075 l -5.45814,-1.12937 17.85837,-11.99986 c 15.72169,-10.56411 17.71999,-12.43399 16.70158,-15.62833 -0.63622,-1.99565 -1.2313,-4.60548 -1.32239,-5.79967 -0.12585,-1.64828 74.7259,-34.95108 102.58105,-45.64009 4.45344,-1.70896 0.88633,1.68805 -20.83157,19.83807 -11.85728,9.90937 -21.55872,18.58292 -21.55872,19.27455 0,0.69163 1.86029,1.2575 4.13399,1.2575 2.2737,0 4.10602,0.5581 4.07182,1.24019 -0.0341,0.68212 -10.08592,7.51073 -22.33717,15.17473 l -22.27498,13.93456 3.6029,3.83511 c 1.98157,2.10931 3.28993,4.10921 2.90739,4.4442 -1.24307,1.0886 -81.3001,30.82236 -82.98805,30.82236 -0.90075,0 5.92957,-6.04617 15.17853,-13.43591 z"
       id="path3270-5"
       inkscape:connector-curvature="0"
       sodipodi:nodetypes="scssscscscssssscsccsscscsssccsccsscscscsscscssccccssccsssssssscccscscscccscsscscssssscsssscssssscccsssscssscscssccssssscscssssccccscscscscsscsscscccsscccccscsccssscscccssccccscsccccsccsscscsscscsssssssscssscsscscscccccccssssssscsccssscsssccsccsssscscscssssscssscsssscsccssscscscsscscsccsssscscscss"
       inkscape:export-xdpi="90"
       inkscape:export-ydpi="90" />
  </g>
</svg>
