<?xml version="1.0" standalone="no"?>
<!DOCTYPE svg PUBLIC "-//W3C//DTD SVG 20010904//EN"
 "http://www.w3.org/TR/2001/REC-SVG-20010904/DTD/svg10.dtd">
<svg version="1.0" xmlns="http://www.w3.org/2000/svg"
 width="260.000000pt" height="260.000000pt" viewBox="0 0 260.000000 260.000000"
 preserveAspectRatio="xMidYMid meet">
<metadata>
Created by potrace 1.11, written by Peter Selinger 2001-2013
</metadata>
<g transform="translate(0.000000,260.000000) scale(0.100000,-0.100000)"
fill="#000000" stroke="none">
<path d="M634 2503 c-52 -17 -102 -65 -127 -122 -19 -42 -19 -74 -19 -1081 0
-1008 0 -1038 19 -1081 26 -58 72 -101 130 -122 43 -14 113 -16 678 -14 590 2
632 3 667 20 51 26 87 64 111 116 19 44 20 70 20 1070 0 564 -4 1042 -8 1061
-14 65 -74 130 -142 154 -60 21 -1267 21 -1329 -1z m1291 -139 c42 -16 41 -12
41 -1076 l-1 -1016 -24 -21 c-24 -21 -30 -21 -643 -21 -605 0 -618 0 -638 20
-11 11 -21 23 -21 27 -1 5 -3 462 -4 1018 -2 1047 -2 1053 37 1068 19 8 1233
8 1253 1z"/>
<path d="M1203 2016 c-81 -26 -156 -96 -196 -183 -18 -39 -22 -65 -22 -138 1
-78 5 -97 28 -142 15 -29 45 -70 66 -91 l39 -39 -34 -239 c-18 -131 -36 -259
-39 -284 -3 -25 -7 -56 -10 -70 -3 -14 -7 -46 -10 -71 -3 -25 -7 -54 -9 -65
-2 -10 -7 -43 -11 -71 l-7 -53 307 0 307 0 -6 28 c-8 36 -13 71 -26 172 -11
87 -17 126 -25 170 -2 14 -7 48 -10 75 -3 28 -10 82 -16 120 -5 39 -12 88 -15
110 -3 22 -7 49 -9 61 -2 11 -7 44 -11 72 -6 50 -5 53 32 89 62 63 89 133 89
233 0 71 -4 94 -26 140 -32 67 -93 130 -157 160 -58 28 -168 36 -229 16z"/>
</g>
</svg>
